<svg xmlns="http://www.w3.org/2000/svg" width="16" height="16" viewBox="0 0 16 16">
    <g fill="none" fill-rule="evenodd">
        <path d="M0 0h16v16H0z"/>
        <path fill="#5C6061" fill-rule="nonzero" d="M5.046 14.572c.927.438 1.409.49 1.57.375.108-.076.192-.331.262-.908l.022-.18c.153-1.307.356-1.84 1.271-1.985.618-.098 1.262-.089 2.12-.001.187.019.35.038.657.074 2.273.271 2.948.152 3.393-.816 1.637-3.566.118-7.804-3.387-9.464-3.5-1.657-7.66-.12-9.295 3.44-1.637 3.566-.118 7.805 3.387 9.465zm-.426.921C.616 13.596-1.116 8.761.75 4.693 2.618.627 7.377-1.132 11.381.764c4.003 1.897 5.735 6.732 3.868 10.8-1.17 2.549-4.414.782-6.957 1.187-1.516.24.526 4.732-3.672 2.743z"/>
        <circle cx="5" cy="12" r="1" fill="#42A5F5"/>
        <circle cx="3.5" cy="8.5" r="1.5" fill="#FDA639"/>
        <circle cx="5.5" cy="4.5" r="1.5" fill="#ED5454"/>
        <circle cx="9.5" cy="3.5" r="1.5" fill="#8BC34A"/>
        <circle cx="11" cy="8" r="2" fill="#B39DDB"/>
    </g>
</svg>
