<svg xmlns="http://www.w3.org/2000/svg" width="16" height="16" viewBox="0 0 16 16">
    <g fill="none" fill-rule="evenodd">
        <path d="M0 0h16v16H0z"/>
        <path stroke="#5C6061" d="M11.544 2.206C10.637 1.058 9.554.5 8.259.5 4.883.5 2.61 4.435 1.566 12.496c2.133.006 4.277.005 6.432-.002 2.127-.007 4.264-.007 6.412-.002-.16-.96-.282-1.671-.358-2.099l-2.508-8.187z"/>
        <path fill="#5C6061" d="M6.25 14h3.5a.625.625 0 0 1 .5 1l-.45.6a1 1 0 0 1-.8.4H7a1 1 0 0 1-.8-.4l-.45-.6a.625.625 0 0 1 .5-1z"/>
        <circle cx="12.5" cy="6.5" r="2.5" fill="#00A2B8"/>
    </g>
</svg>
