<svg xmlns="http://www.w3.org/2000/svg" width="16" height="16" viewBox="0 0 16 16">
    <g fill="none" fill-rule="evenodd">
        <path d="M0 0h16v16H0z"/>
        <path stroke="#5C6061" d="M8 15.5c4.135 0 7.5-3.365 7.5-7.5S12.135.5 8 .5C3.864.5.5 3.864.5 8s3.364 7.5 7.5 7.5z"/>
        <path fill="#5C6061" d="M4.5 8c-1-.667-1.333-1.333-1-2 .5-1 3.793-1.466 4-2.5.138-.69-1.196-1.19-4-1.5C1.833 2.333 1 3.667 1 6c0 1.264.609 1.312 1 1.5.22.106.887.273 2 .5.39.146.607.313.653.5.093.384-.264 1.111-.153 1.5.288 1.01-.202.766.5 1 .468.156.634.156.5 0 0 2.333.333 3.5 1 3.5.33 0 .088-.182.5-1 .333-.662 1.904-2.734 2-3.5.096-.766-1.26-.834-1.5-1-.24-.166-1.266-.912-1.5-1-.35-.131-.85-.131-1.5 0zM14.5 6.5c-1.021-.34-1.5-1-2-1s-.934-.226-1.5 0c-.377.15-.71.484-1 1-.243 1.103-.076 1.77.5 2 .864.346 1.092-.662 2 .7.908 1.361.445 3.511 1 3.8.37.192.87-.64 1.5-2.5l.5-4c.014.227-.32.227-1 0zM13.5 3.06c-.168-.1-.642-.562-1-.56-.23.001-.36.42-.5.5-.168.096.116.502 0 .56-.364.182.25.69 0 .94s-1-.19-1 .06 0 .5.5.5.75-.917 1-1c.164-.055.234.185.25.5.008.164-.086.5 0 .5.052 0 .223.156.25 0 .038-.217-.072-.788 0-1 .043-.129-.098.1.5.5.399.266.732.432 1 .5-.398-1.172-.73-1.839-1-2z"/>
        <path fill="#5C6061" d="M11.5 4c.276 0 0-.224 0-.5s.276-.5 0-.5a.5.5 0 1 0 0 1z"/>
        <path fill="#5C6061" d="M11.5 3.75c.276 0 0 .026 0-.25s-.224 0-.5 0a.5.5 0 0 0-.5.5c0 .276.724-.25 1-.25z"/>
    </g>
</svg>
